<svg xmlns="http://www.w3.org/2000/svg" width="34" height="34" viewBox="0 0 1254 1254">
  <defs>
    <mask id="a" width="1254" height="1254" x="0" y="0" maskUnits="userSpaceOnUse">
      <path fill="#FFF" d="M0 0h1254v1254H0z"></path>
      <path d="m581.54 429.783 21.351-.05c-.078 7.355-.311 15.469-.091 22.752l21.773.013.003 22.726-21.731.025q.178-11.407-.062-22.812c-6.848-.024-14.481-.193-21.265.013zM853.77 475.328q10.83.188 21.662.068c-.027 7.51.061 15.335-.099 22.816-7.104.017-14.467.132-21.548.028-.016-7.566-.13-15.366-.015-22.912M875.366 452.462l21.63.06.046 22.826c-6.433-.314-15.047-.088-21.643-.099zM853.833 429.813l21.591-.062-.058 22.711-21.526-.071zM832.176 452.442l21.59.056q-.126 11.415.004 22.83l-21.497-.087zM559.664 452.454c7.152.009 14.738.145 21.854-.004-.438 7.475-.256 15.274-.216 22.782l-21.552-.002q.022-11.388-.086-22.776M810.744 429.791l21.464-.006-.032 22.657-21.444-.093zM592.563 475.456l10.254-.107-.11 22.806-11.247.146c-3.666.045-6.273.061-9.942-.238a911 911 0 0 1 .078-22.551zM624.683 475.429l21.278.09-.115 22.672-21.17.073z"></path>
      <path d="m538.321 429.818 21.34-.022.003 22.658q-10.708-.107-21.417-.102zM897.042 475.348q10.649.04 21.296.197l.006 22.688c-6.932-.001-14.394.131-21.28-.037z"></path>
    </mask>
  </defs>
  <g fill="#FFF" mask="url(#a)">
    <path d="M240.942 394.378c2.894 7.11 2.759 12.586 12.725 11.003-9.971 20.184-12.177 46.635-5.366 67.56 5.913 18.165 20.821 32.581 40.612 29.938 4.187-.559 11.889-1.197 13.364 3.838 4.669 15.419-22.963 12.514-30.383 10.841 4.208 15.172 10.09 23.443 24.029 31.988 4.714 2.89 16.862 6.505 18.335 12.291 2.274 11.405-6.415 28.68 1.782 38.396 1.153 1.366 6.847 1.167 8.661.226 11.955-6.195 16.209-22.441 17.778-34.448-21.338-29.328-33.925-59.484-29.24-97.104.252-2.018 1.1-6.522 1.741-8.402 3.129-9.48 6.316-17.456 12.821-25.2a54.64 54.64 0 0 1 37.759-19.689c18.369-1.558 32.47 5.997 45.986 17.451 6.758 6.142 10.741 11.98 14.755 20.238 8.759-5.551 21.103-13.297 28.638-20.274 5.389-.918 21.644-.239 28.181-.192-5.533 5.084-9.209 7.389-15.73 11.198 4.232 18.769.16 35.653-10.084 51.834a73.7 73.7 0 0 1-9.115 11.775c7.138 2.884 12.884 6.003 18.145 11.831 9.251 10.246 13.629 26.753 8.273 39.851a21 21 0 0 1-11.333 11.559c-11.642 4.898-25.228-3.959-29.788-14.958-2.733-6.592 3.418-14.912 10.041-10.418 4.209 2.856 6.604 10.624 11.971 11.693 6.424-.96 6.999-8.747 6.132-13.885-1.243-7.358-4.996-12.864-11.334-16.959-12.215-6.946-27.247-10.867-28.915-27.389-2.181-21.616-7.434-49.242-27.957-60.945-48.597-27.713-74.794 25.16-63.284 67.394 11.158 40.942 29.16 59.862 63.012 82.844 7.753 4.964 17.888 11.232 27.632 9.27 8.026-1.616 19.855-15.377 23.159.313 2.14 10.164 3.396 20.487 5.82 30.601 8.383 40.672 25.286 74.349 63.441 96.505 66.465 38.597 168.044 75.05 246.07 60.606 17.339-3.21 33.664-14.609 41.98-29.464 7.28-13.004 14.056-29.95 19.672-43.868 24.964-61.865 44.908-124.366 53.784-190.615 4.723-.395 10.51-.497 15.184.199l.761.901c-5.343 51.737-26.639 121.434-45.279 170.586a1531 1531 0 0 1-13.069 32.997c-1.869 4.473-10.92 24.36-10.877 27.1.357 22.806 4.763 53.177 6.073 75.662 70.269 34.594 140.582 50.411 216.695 66.844 15.63 3.371 31.27 6.624 46.94 9.759 9.39 1.894 25.79 4.151 33.91 8.08 28.96 14.016 34.21 42.804 21.75 69.584 20.12 27.596 17.07 62.066 9.79 93.576-8.61 37.05-21.18 73.16-33.09 109.26-2.34 7.08-6.33 21.79-11.25 26.6-4.91 1.48-46.39.9-54.85.9H930.329l-591.257-.06-143.196-.01c-24.694.01-49.386.08-74.083-.04-16.339-.08-14.806-9.47-14.714-22.42.419-59.35 52.634-84.29 95.591-112.82a2362 2362 0 0 0 107.798-74.68c43.124-31.801 96.685-72.788 117.046-124.075-4.974-30.242-11.089-59.998-15.051-90.507-6.921-2.561-11.99-4.603-18.494-8.238a104.51 104.51 0 0 1-49.948-63.556c-3.339-.569-6.203-1.084-9.458-2.062a51.43 51.43 0 0 1-30.912-25.567c-6.758-12.826-8.458-28.849-5.42-43.075.976-4.569 4.083-10.797 4.721-15.454.731-5.334.143-12.387.232-17.832.068-4.162-2.614-6.522-3.878-10.352-3.198-9.697-3.036-24.615-.068-34.173-27.805-12.294-41.24-27.283-44.265-58.388-34.35-29.238-32.625-78.307-14.031-115.973m191.585 510.855a233.2 233.2 0 0 1-34.314 45.977c-20.658 21.737-45.012 40.518-68.939 58.51a2523 2523 0 0 1-121.622 84.41c-11.649 7.74-23.788 15.57-35.375 23.38-33.662 22.67-48.295 39.09-49.763 80.17l216.814-.08 67.381.02c10.235 0 26.576.46 36.432-.3 11.161-5.29 25.372-10.53 37.028-15.56a2229 2229 0 0 0 72.328-33.04c132.024-63.76 262.037-144.93 363.282-251.861a360 360 0 0 0 11.628-12.905c-36.367-11.101-63.053-19.743-97.848-36.053 1.028 27.811 3.311 54.826-2.201 82.491-.763 3.828-1.287 10.516-3.817 13.403-4.675 5.333-13.066 2.184-12.893-5.114.169-7.136 1.974-13.792 2.846-20.84.549-5.358 1.075-12.283 1.227-17.55 1.146-39.892-3.554-84.111-7.875-123.956-14.739 16.379-30.08 21.859-51.167 26.593-21.19 21.094-37.096 47.489-48.976 74.778-3.335 8.747-14.987 4.172-14.321-3.143.378-4.139 4.592-12.767 6.536-16.806 8.18-16.989 20.079-38.564 32.912-52.257-19.728-.317-40.658-1.133-60.811-5.066-63.927-12.473-149.295-40.317-197.304-85.771-24.392-23.094-38.779-71.083-43.078-103.944-6.141 2.096-10.825 2.841-17.418 2.252 4.106 79.1 9.982 157.804 24.78 235.66 4.329 22.773 7.852 44.843 13.733 67.397 5.706 21.885 12.66 42.727 19.93 64.096a1015 1015 0 0 0 14.459 39.986c1.858 4.87 8.098 19.97 8.759 23.84a7.75 7.75 0 0 1-1.483 5.94c-11.08 14.27-20.81-21.36-23.015-27.3a1482 1482 0 0 1-27.018-78.312c-4.016-13.155-7.04-26.217-10.837-39.045"/>
  </g>
</svg>